<svg xmlns="http://www.w3.org/2000/svg" xmlns:xlink="http://www.w3.org/1999/xlink" width="1335" height="565" viewBox="0 0 1335 565"><defs><style>.a{fill:#fff;stroke:#707070;}.b{fill:#00ff2b;font-size:26px;font-family:GodoB, Godo B;}.c{stroke:none;}.d{fill:none;}</style><image id="a" width="100" height="100" xlink:href="ComponentTMP_9-image.png"/></defs><g transform="translate(-293 -485)"><g transform="translate(193 36)"><g transform="translate(-306 64)"><g class="a" transform="translate(406 385)"><rect class="c" width="227" height="272"/><rect class="d" x="0.5" y="0.5" width="226" height="271"/></g><use transform="translate(470 407)" xlink:href="#a"/><text class="b" transform="translate(520 550)"><tspan x="-51.181" y="0">[Pickup]</tspan></text><text class="b" transform="translate(520 600)"><tspan x="-103.142" y="0">리플레이서 나이트 </tspan></text></g><g transform="translate(-29 64)"><g class="a" transform="translate(406 385)"><rect class="c" width="227" height="272"/><rect class="d" x="0.5" y="0.5" width="226" height="271"/></g><use transform="translate(470 407)" xlink:href="#a"/><text class="b" transform="translate(520 550)"><tspan x="-51.181" y="0">[Pickup]</tspan></text><text class="b" transform="translate(520 600)"><tspan x="-103.142" y="0">리플레이서 나이트 </tspan></text></g><g transform="translate(248 64)"><g class="a" transform="translate(406 385)"><rect class="c" width="227" height="272"/><rect class="d" x="0.5" y="0.5" width="226" height="271"/></g><use transform="translate(470 407)" xlink:href="#a"/><text class="b" transform="translate(520 550)"><tspan x="-51.181" y="0">[Pickup]</tspan></text><text class="b" transform="translate(520 600)"><tspan x="-103.142" y="0">리플레이서 나이트 </tspan></text></g><g transform="translate(525 64)"><g class="a" transform="translate(406 385)"><rect class="c" width="227" height="272"/><rect class="d" x="0.5" y="0.5" width="226" height="271"/></g><use transform="translate(470 407)" xlink:href="#a"/><text class="b" transform="translate(520 550)"><tspan x="-51.181" y="0">[Pickup]</tspan></text><text class="b" transform="translate(520 600)"><tspan x="-103.142" y="0">리플레이서 나이트 </tspan></text></g><g transform="translate(802 64)"><g class="a" transform="translate(406 385)"><rect class="c" width="227" height="272"/><rect class="d" x="0.5" y="0.5" width="226" height="271"/></g><use transform="translate(470 407)" xlink:href="#a"/><text class="b" transform="translate(520 550)"><tspan x="-51.181" y="0">[Pickup]</tspan></text><text class="b" transform="translate(520 600)"><tspan x="-103.142" y="0">리플레이서 나이트 </tspan></text></g></g><g transform="translate(193 329)"><g transform="translate(-306 64)"><g class="a" transform="translate(406 385)"><rect class="c" width="227" height="272"/><rect class="d" x="0.5" y="0.5" width="226" height="271"/></g><use transform="translate(470 407)" xlink:href="#a"/><text class="b" transform="translate(520 550)"><tspan x="-51.181" y="0">[Pickup]</tspan></text><text class="b" transform="translate(520 600)"><tspan x="-103.142" y="0">리플레이서 나이트 </tspan></text></g><g transform="translate(-29 64)"><g class="a" transform="translate(406 385)"><rect class="c" width="227" height="272"/><rect class="d" x="0.5" y="0.5" width="226" height="271"/></g><use transform="translate(470 407)" xlink:href="#a"/><text class="b" transform="translate(520 550)"><tspan x="-51.181" y="0">[Pickup]</tspan></text><text class="b" transform="translate(520 600)"><tspan x="-103.142" y="0">리플레이서 나이트 </tspan></text></g><g transform="translate(248 64)"><g class="a" transform="translate(406 385)"><rect class="c" width="227" height="272"/><rect class="d" x="0.5" y="0.5" width="226" height="271"/></g><use transform="translate(470 407)" xlink:href="#a"/><text class="b" transform="translate(520 550)"><tspan x="-51.181" y="0">[Pickup]</tspan></text><text class="b" transform="translate(520 600)"><tspan x="-103.142" y="0">리플레이서 나이트 </tspan></text></g><g transform="translate(525 64)"><g class="a" transform="translate(406 385)"><rect class="c" width="227" height="272"/><rect class="d" x="0.5" y="0.5" width="226" height="271"/></g><use transform="translate(470 407)" xlink:href="#a"/><text class="b" transform="translate(520 550)"><tspan x="-51.181" y="0">[Pickup]</tspan></text><text class="b" transform="translate(520 600)"><tspan x="-103.142" y="0">리플레이서 나이트 </tspan></text></g><g transform="translate(802 64)"><g class="a" transform="translate(406 385)"><rect class="c" width="227" height="272"/><rect class="d" x="0.5" y="0.5" width="226" height="271"/></g><use transform="translate(470 407)" xlink:href="#a"/><text class="b" transform="translate(520 550)"><tspan x="-51.181" y="0">[Pickup]</tspan></text><text class="b" transform="translate(520 600)"><tspan x="-103.142" y="0">리플레이서 나이트 </tspan></text></g></g></g></svg>